<svg width="720" height="720" viewBox="0 0 720 720" fill="none" xmlns="http://www.w3.org/2000/svg">
<g clip-path="url(#clip0_201_40)">
<path d="M10.9582 151.211C-10.1807 138.509 -37.7206 145.376 -50.4222 166.514C-63.1237 187.653 -56.2572 215.193 -35.1183 227.895C-13.9794 240.596 13.5664 233.733 26.2679 212.594C38.9694 191.456 32.0971 163.912 10.9582 151.211ZM-29.5323 218.598C-45.5449 208.977 -50.7468 188.113 -41.1255 172.1C-31.5042 156.088 -10.6403 150.886 5.37219 160.507C21.3906 170.132 26.5925 190.996 16.9712 207.009C7.34994 223.021 -13.5139 228.223 -29.5323 218.598Z" fill="#066699" fill-opacity="0.43"/>
<path d="M22.9478 131.257C-9.19459 111.943 -51.0538 122.38 -70.3634 154.517C-89.6729 186.653 -79.2398 228.518 -47.0974 247.831C-14.9492 267.148 26.9101 256.711 46.2231 224.569C65.5327 192.432 55.096 150.573 22.9478 131.257ZM-41.5149 238.541C-68.531 222.308 -77.3066 187.13 -61.0702 160.108C-44.8374 133.092 -9.65423 124.32 17.3618 140.553C44.3778 156.786 53.15 191.969 36.9171 218.985C20.6842 246.001 -14.4989 254.773 -41.5149 238.541Z" fill="#066699" fill-opacity="0.43"/>
<path d="M330.901 37.9128C309.762 25.2112 282.222 32.0777 269.521 53.2166C256.819 74.3555 263.686 101.895 284.825 114.597C305.964 127.298 333.509 120.436 346.211 99.2966C358.913 78.1578 352.04 50.6143 330.901 37.9128ZM290.411 105.3C274.398 95.679 269.196 74.8151 278.818 58.8026C288.439 42.7901 309.303 37.5881 325.315 47.2094C341.334 56.8342 346.536 77.6981 336.914 93.7107C327.293 109.723 306.429 114.925 290.411 105.3Z" fill="#066699" fill-opacity="0.43"/>
<path d="M342.891 17.9587C310.749 -1.35441 268.889 9.08226 249.58 41.2188C230.27 73.3553 240.703 115.22 272.846 134.533C304.994 153.85 346.853 143.413 366.166 111.271C385.476 79.1345 375.039 37.2753 342.891 17.9587ZM278.428 125.243C251.412 109.01 242.637 73.8325 258.873 46.8106C275.106 19.7946 310.289 11.0225 337.305 27.2553C364.321 43.4882 373.093 78.6713 356.86 105.687C340.627 132.703 305.444 141.476 278.428 125.243Z" fill="#066699" fill-opacity="0.43"/>
<path d="M227.579 254.533C206.44 241.832 178.9 248.698 166.198 269.837C153.497 290.976 160.363 318.516 181.502 331.218C202.641 343.919 230.187 337.056 242.888 315.917C255.59 294.778 248.718 267.235 227.579 254.533ZM187.088 321.921C171.076 312.3 165.874 291.436 175.495 275.423C185.116 259.411 205.98 254.209 221.993 263.83C238.011 273.455 243.213 294.319 233.592 310.331C223.97 326.344 203.107 331.546 187.088 321.921Z" fill="#066699" fill-opacity="0.43"/>
<path d="M239.568 234.579C207.426 215.266 165.567 225.703 146.257 257.839C126.948 289.976 137.381 331.841 169.523 351.154C201.671 370.471 243.531 360.034 262.844 327.892C282.153 295.755 271.717 253.896 239.568 234.579ZM175.106 341.863C148.09 325.63 139.314 290.453 155.55 263.431C171.783 236.415 206.966 227.643 233.982 243.876C260.998 260.109 269.77 295.292 253.538 322.308C237.305 349.324 202.122 358.096 175.106 341.863Z" fill="#066699" fill-opacity="0.43"/>
<path d="M114.281 -65.4097C93.142 -78.1113 65.6021 -71.2448 52.9006 -50.1059C40.1991 -28.967 47.0655 -1.42707 68.2044 11.2745C89.3433 23.976 116.889 17.113 129.591 -4.02586C142.292 -25.1648 135.42 -52.7082 114.281 -65.4097ZM73.7904 1.9778C57.7779 -7.6435 52.5759 -28.5074 62.1972 -44.5199C71.8185 -60.5324 92.6824 -65.7344 108.695 -56.1131C124.713 -46.4883 129.915 -25.6244 120.294 -9.61186C110.673 6.40068 89.8088 11.6026 73.7904 1.9778Z" fill="#066699" fill-opacity="0.43"/>
<path d="M126.271 -85.3638C94.1282 -104.677 52.269 -94.2402 32.9594 -62.1037C13.6498 -29.9672 24.083 11.8978 56.2254 31.2109C88.3736 50.5275 130.233 40.0909 149.546 7.9485C168.855 -24.188 158.419 -66.0472 126.271 -85.3638ZM61.8078 21.9201C34.7918 5.68728 26.0161 -29.49 42.2525 -56.5119C58.4854 -83.5279 93.6685 -92.3 120.685 -76.0672C147.701 -59.8343 156.473 -24.6512 140.24 2.36485C124.007 29.3809 88.8238 38.153 61.8078 21.9201Z" fill="#066699" fill-opacity="0.43"/>
<path d="M-32.0522 524.257C-64.1946 504.943 -106.054 515.38 -125.363 547.517C-144.673 579.653 -134.24 621.518 -102.097 640.831C-69.9492 660.148 -28.0899 649.711 -8.77686 617.569C10.5327 585.432 0.0960213 543.573 -32.0522 524.257ZM-96.5149 631.541C-123.531 615.308 -132.307 580.13 -116.07 553.108C-99.8374 526.092 -64.6542 517.32 -37.6382 533.553C-10.6222 549.786 -1.85005 584.969 -18.0829 611.985C-34.3158 639.001 -69.4989 647.773 -96.5149 631.541Z" fill="#066699" fill-opacity="0.43"/>
<path d="M275.901 430.913C254.763 418.211 227.223 425.078 214.521 446.217C201.82 467.355 208.686 494.895 229.825 507.597C250.964 520.298 278.51 513.436 291.211 492.297C303.913 471.158 297.04 443.614 275.901 430.913ZM235.411 498.3C219.398 488.679 214.196 467.815 223.818 451.803C233.439 435.79 254.303 430.588 270.315 440.209C286.334 449.834 291.536 470.698 281.914 486.711C272.293 502.723 251.429 507.925 235.411 498.3Z" fill="#066699" fill-opacity="0.43"/>
<path d="M287.891 410.959C255.749 391.646 213.889 402.082 194.58 434.219C175.27 466.355 185.703 508.22 217.846 527.533C249.994 546.85 291.853 536.413 311.166 504.271C330.476 472.134 320.039 430.275 287.891 410.959ZM223.428 518.243C196.412 502.01 187.637 466.833 203.873 439.811C220.106 412.795 255.289 404.022 282.305 420.255C309.321 436.488 318.093 471.671 301.86 498.687C285.627 525.703 250.444 534.476 223.428 518.243Z" fill="#066699" fill-opacity="0.43"/>
<path d="M172.579 647.533C151.44 634.832 123.9 641.698 111.198 662.837C98.4968 683.976 105.363 711.516 126.502 724.217C147.641 736.919 175.187 730.056 187.888 708.917C200.59 687.778 193.718 660.235 172.579 647.533ZM132.088 714.921C116.076 705.299 110.874 684.436 120.495 668.423C130.116 652.411 150.98 647.209 166.993 656.83C183.011 666.455 188.213 687.319 178.592 703.331C168.97 719.344 148.107 724.546 132.088 714.921Z" fill="#066699" fill-opacity="0.43"/>
<path d="M184.568 627.579C152.426 608.266 110.567 618.703 91.2571 650.839C71.9476 682.976 82.3807 724.841 114.523 744.154C146.671 763.471 188.531 753.034 207.844 720.891C227.153 688.755 216.717 646.896 184.568 627.579ZM120.106 734.863C93.0895 718.63 84.3139 683.453 100.55 656.431C116.783 629.415 151.966 620.643 178.982 636.876C205.998 653.109 214.77 688.292 198.538 715.308C182.305 742.324 147.122 751.096 120.106 734.863Z" fill="#066699" fill-opacity="0.43"/>
<path d="M59.2809 327.59C38.142 314.889 10.6021 321.755 -2.09941 342.894C-14.8009 364.033 -7.93446 391.573 13.2044 404.274C34.3433 416.976 61.8891 410.113 74.5906 388.974C87.2922 367.835 80.4198 340.292 59.2809 327.59ZM18.7904 394.978C2.77788 385.357 -2.42406 364.493 7.19724 348.48C16.8185 332.468 37.6824 327.266 53.6949 336.887C69.7133 346.512 74.9153 367.376 65.294 383.388C55.6727 399.401 34.8088 404.603 18.7904 394.978Z" fill="#066699" fill-opacity="0.43"/>
<path d="M71.2705 307.636C39.1282 288.323 -2.73104 298.76 -22.0406 330.896C-41.3502 363.033 -30.917 404.898 1.22535 424.211C33.3736 443.528 75.2328 433.091 94.5459 400.948C113.855 368.812 103.419 326.953 71.2705 307.636ZM6.80782 414.92C-20.2082 398.687 -28.9839 363.51 -12.7475 336.488C3.48539 309.472 38.6685 300.7 65.6845 316.933C92.7006 333.166 101.473 368.349 85.2398 395.365C69.007 422.381 33.8238 431.153 6.80782 414.92Z" fill="#066699" fill-opacity="0.43"/>
<path d="M429.958 193.211C408.819 180.509 381.279 187.376 368.578 208.514C355.876 229.653 362.743 257.193 383.882 269.895C405.021 282.596 432.566 275.733 445.268 254.594C457.969 233.456 451.097 205.912 429.958 193.211ZM389.468 260.598C373.455 250.977 368.253 230.113 377.874 214.1C387.496 198.088 408.36 192.886 424.372 202.507C440.391 212.132 445.593 232.996 435.971 249.009C426.35 265.021 405.486 270.223 389.468 260.598Z" fill="#066699" fill-opacity="0.43"/>
<path d="M441.948 173.257C409.805 153.943 367.946 164.38 348.637 196.517C329.327 228.653 339.76 270.518 371.903 289.831C404.051 309.148 445.91 298.711 465.223 266.569C484.533 234.432 474.096 192.573 441.948 173.257ZM377.485 280.541C350.469 264.308 341.693 229.13 357.93 202.108C374.163 175.092 409.346 166.32 436.362 182.553C463.378 198.786 472.15 233.969 455.917 260.985C439.684 288.001 404.501 296.773 377.485 280.541Z" fill="#066699" fill-opacity="0.43"/>
<path d="M749.901 79.9128C728.762 67.2112 701.222 74.0777 688.521 95.2166C675.819 116.355 682.686 143.895 703.825 156.597C724.964 169.298 752.509 162.436 765.211 141.297C777.913 120.158 771.04 92.6143 749.901 79.9128ZM709.411 147.3C693.398 137.679 688.196 116.815 697.818 100.803C707.439 84.7901 728.303 79.5881 744.315 89.2094C760.334 98.8342 765.536 119.698 755.914 135.711C746.293 151.723 725.429 156.925 709.411 147.3Z" fill="#066699" fill-opacity="0.43"/>
<path d="M761.891 59.9587C729.749 40.6456 687.889 51.0823 668.58 83.2188C649.27 115.355 659.703 157.22 691.846 176.533C723.994 195.85 765.853 185.413 785.166 153.271C804.476 121.134 794.039 79.2753 761.891 59.9587ZM697.428 167.243C670.412 151.01 661.637 115.833 677.873 88.8106C694.106 61.7946 729.289 53.0225 756.305 69.2553C783.321 85.4882 792.093 120.671 775.86 147.687C759.627 174.703 724.444 183.476 697.428 167.243Z" fill="#066699" fill-opacity="0.43"/>
<path d="M646.579 296.533C625.44 283.832 597.9 290.698 585.198 311.837C572.497 332.976 579.363 360.516 600.502 373.218C621.641 385.919 649.187 379.056 661.888 357.917C674.59 336.778 667.717 309.235 646.579 296.533ZM606.088 363.921C590.076 354.3 584.874 333.436 594.495 317.423C604.116 301.411 624.98 296.209 640.993 305.83C657.011 315.455 662.213 336.319 652.592 352.331C642.97 368.344 622.106 373.546 606.088 363.921Z" fill="#066699" fill-opacity="0.43"/>
<path d="M658.568 276.579C626.426 257.266 584.567 267.703 565.257 299.839C545.948 331.976 556.381 373.841 588.523 393.154C620.671 412.471 662.531 402.034 681.844 369.892C701.153 337.755 690.717 295.896 658.568 276.579ZM594.106 383.863C567.09 367.63 558.314 332.453 574.55 305.431C590.783 278.415 625.966 269.643 652.982 285.876C679.998 302.109 688.77 337.292 672.538 364.308C656.305 391.324 621.122 400.096 594.106 383.863Z" fill="#066699" fill-opacity="0.43"/>
<path d="M533.281 -23.4097C512.142 -36.1113 484.602 -29.2448 471.9 -8.1059C459.199 13.033 466.065 40.5729 487.204 53.2745C508.343 65.976 535.889 59.113 548.591 37.9741C561.292 16.8352 554.42 -10.7082 533.281 -23.4097ZM492.79 43.9778C476.778 34.3565 471.576 13.4926 481.197 -2.51991C490.818 -18.5324 511.682 -23.7344 527.695 -14.1131C543.713 -4.48826 548.915 16.3756 539.294 32.3881C529.673 48.4007 508.809 53.6026 492.79 43.9778Z" fill="#066699" fill-opacity="0.43"/>
<path d="M545.27 -43.3638C513.128 -62.6769 471.269 -52.2402 451.959 -20.1037C432.65 12.0328 443.083 53.8978 475.225 73.2109C507.374 92.5275 549.233 82.0909 568.546 49.9485C587.855 17.812 577.419 -24.0472 545.27 -43.3638ZM480.808 63.9201C453.792 47.6873 445.016 12.51 461.252 -14.5119C477.485 -41.5279 512.668 -50.3 539.684 -34.0672C566.7 -17.8343 575.473 17.3488 559.24 44.3648C543.007 71.3809 507.824 80.153 480.808 63.9201Z" fill="#066699" fill-opacity="0.43"/>
<path d="M419.958 646.211C398.819 633.509 371.279 640.376 358.578 661.514C345.876 682.653 352.743 710.193 373.882 722.895C395.021 735.596 422.566 728.733 435.268 707.594C447.969 686.456 441.097 658.912 419.958 646.211ZM379.468 713.598C363.455 703.977 358.253 683.113 367.874 667.1C377.496 651.088 398.36 645.886 414.372 655.507C430.391 665.132 435.592 685.996 425.971 702.009C416.35 718.021 395.486 723.223 379.468 713.598Z" fill="#066699" fill-opacity="0.43"/>
<path d="M431.948 626.257C399.805 606.943 357.946 617.38 338.637 649.517C319.327 681.653 329.76 723.518 361.903 742.831C394.051 762.148 435.91 751.711 455.223 719.569C474.533 687.432 464.096 645.573 431.948 626.257ZM367.485 733.541C340.469 717.308 331.693 682.13 347.93 655.108C364.163 628.092 399.346 619.32 426.362 635.553C453.378 651.786 462.15 686.969 445.917 713.985C429.684 741.001 394.501 749.773 367.485 733.541Z" fill="#066699" fill-opacity="0.43"/>
<path d="M739.901 532.913C718.762 520.211 691.222 527.078 678.521 548.217C665.819 569.355 672.686 596.895 693.825 609.597C714.964 622.298 742.509 615.436 755.211 594.297C767.912 573.158 761.04 545.614 739.901 532.913ZM699.411 600.3C683.398 590.679 678.196 569.815 687.818 553.803C697.439 537.79 718.303 532.588 734.315 542.209C750.334 551.834 755.536 572.698 745.914 588.711C736.293 604.723 715.429 609.925 699.411 600.3Z" fill="#066699" fill-opacity="0.43"/>
<path d="M751.891 512.959C719.749 493.646 677.889 504.082 658.58 536.219C639.27 568.355 649.703 610.22 681.846 629.533C713.994 648.85 755.853 638.413 775.166 606.271C794.476 574.134 784.039 532.275 751.891 512.959ZM687.428 620.243C660.412 604.01 651.637 568.833 667.873 541.811C684.106 514.795 719.289 506.022 746.305 522.255C773.321 538.488 782.093 573.671 765.86 600.687C749.627 627.703 714.444 636.476 687.428 620.243Z" fill="#066699" fill-opacity="0.43"/>
<path d="M648.568 729.579C616.426 710.266 574.567 720.703 555.257 752.839C535.948 784.976 546.381 826.841 578.523 846.154C610.671 865.471 652.53 855.034 671.844 822.891C691.153 790.755 680.716 748.896 648.568 729.579ZM584.105 836.863C557.089 820.63 548.314 785.453 564.55 758.431C580.783 731.415 615.966 722.643 642.982 738.876C669.998 755.109 678.77 790.292 662.538 817.308C646.305 844.324 611.122 853.096 584.105 836.863Z" fill="#066699" fill-opacity="0.43"/>
<path d="M523.281 429.59C502.142 416.889 474.602 423.755 461.9 444.894C449.199 466.033 456.065 493.573 477.204 506.274C498.343 518.976 525.889 512.113 538.59 490.974C551.292 469.835 544.42 442.292 523.281 429.59ZM482.79 496.978C466.778 487.356 461.576 466.493 471.197 450.48C480.818 434.467 501.682 429.265 517.695 438.887C533.713 448.512 538.915 469.375 529.294 485.388C519.673 501.401 498.809 506.603 482.79 496.978Z" fill="#066699" fill-opacity="0.43"/>
<path d="M535.27 409.636C503.128 390.323 461.269 400.76 441.959 432.896C422.65 465.033 433.083 506.898 465.225 526.211C497.373 545.527 539.233 535.091 558.546 502.948C577.855 470.812 567.419 428.953 535.27 409.636ZM470.808 516.92C443.792 500.687 435.016 465.51 451.252 438.488C467.485 411.472 502.668 402.7 529.684 418.933C556.7 435.166 565.473 470.349 549.24 497.365C533.007 524.381 497.824 533.153 470.808 516.92Z" fill="#066699" fill-opacity="0.43"/>
</g>
<defs>
<clipPath id="clip0_201_40">
<rect width="720" height="720" fill="white"/>
</clipPath>
</defs>
</svg>
